<mxfile host="Electron" modified="2023-09-20T13:54:00.586Z" agent="Mozilla/5.0 (Windows NT 10.0; Win64; x64) AppleWebKit/537.36 (KHTML, like Gecko) draw.io/21.6.8 Chrome/114.0.5735.289 Electron/25.5.0 Safari/537.36" etag="ZjMJkpZUHnoTNyz7TFk9" version="21.6.8" type="device">
  <diagram name="Page-1" id="2grStMjshq6t2VxNPuhA">
    <mxGraphModel dx="714" dy="423" grid="1" gridSize="10" guides="1" tooltips="1" connect="1" arrows="1" fold="1" page="1" pageScale="1" pageWidth="850" pageHeight="1100" math="0" shadow="0">
      <root>
        <mxCell id="0" />
        <mxCell id="1" parent="0" />
        <mxCell id="pBLvvGg1-i04REJQwC87-1" value="ZeroMate" style="swimlane;whiteSpace=wrap;html=1;fontFamily=Computer Modern;" vertex="1" parent="1">
          <mxGeometry x="260" y="160" width="380" height="110" as="geometry" />
        </mxCell>
        <mxCell id="pBLvvGg1-i04REJQwC87-10" style="edgeStyle=orthogonalEdgeStyle;rounded=0;orthogonalLoop=1;jettySize=auto;html=1;exitX=1;exitY=0.25;exitDx=0;exitDy=0;entryX=-0.007;entryY=0.248;entryDx=0;entryDy=0;entryPerimeter=0;" edge="1" parent="pBLvvGg1-i04REJQwC87-1" source="pBLvvGg1-i04REJQwC87-7" target="pBLvvGg1-i04REJQwC87-8">
          <mxGeometry relative="1" as="geometry" />
        </mxCell>
        <mxCell id="pBLvvGg1-i04REJQwC87-7" value="&amp;lt;&amp;lt;component&amp;gt;&amp;gt;&lt;br&gt;&lt;b&gt;GUI&lt;/b&gt;" style="shape=module;align=left;spacingLeft=20;align=center;verticalAlign=top;whiteSpace=wrap;html=1;shadow=1;fontFamily=Computer Modern;" vertex="1" parent="pBLvvGg1-i04REJQwC87-1">
          <mxGeometry x="20" y="40" width="120" height="50" as="geometry" />
        </mxCell>
        <mxCell id="pBLvvGg1-i04REJQwC87-8" value="&amp;lt;&amp;lt;component&amp;gt;&amp;gt;&lt;br&gt;&lt;b&gt;ELF Loader&lt;/b&gt;" style="shape=module;align=left;spacingLeft=20;align=center;verticalAlign=top;whiteSpace=wrap;html=1;shadow=1;fontFamily=Computer Modern;" vertex="1" parent="pBLvvGg1-i04REJQwC87-1">
          <mxGeometry x="180" y="40" width="120" height="50" as="geometry" />
        </mxCell>
        <mxCell id="pBLvvGg1-i04REJQwC87-12" style="edgeStyle=orthogonalEdgeStyle;rounded=0;orthogonalLoop=1;jettySize=auto;html=1;exitX=0;exitY=0.75;exitDx=0;exitDy=0;entryX=1;entryY=0.75;entryDx=0;entryDy=0;exitPerimeter=0;" edge="1" parent="pBLvvGg1-i04REJQwC87-1" source="pBLvvGg1-i04REJQwC87-8" target="pBLvvGg1-i04REJQwC87-7">
          <mxGeometry relative="1" as="geometry">
            <mxPoint x="150" y="63" as="sourcePoint" />
            <mxPoint x="219" y="62" as="targetPoint" />
          </mxGeometry>
        </mxCell>
        <mxCell id="pBLvvGg1-i04REJQwC87-23" value="" style="endArrow=classic;html=1;rounded=0;exitX=1;exitY=0.25;exitDx=0;exitDy=0;" edge="1" parent="pBLvvGg1-i04REJQwC87-1" source="pBLvvGg1-i04REJQwC87-8">
          <mxGeometry width="50" height="50" relative="1" as="geometry">
            <mxPoint x="340" y="90" as="sourcePoint" />
            <mxPoint x="350" y="53" as="targetPoint" />
          </mxGeometry>
        </mxCell>
        <mxCell id="pBLvvGg1-i04REJQwC87-24" value="Copy data to RAM" style="text;html=1;strokeColor=none;fillColor=none;align=center;verticalAlign=middle;whiteSpace=wrap;rounded=0;fontFamily=Computer Modern;" vertex="1" parent="pBLvvGg1-i04REJQwC87-1">
          <mxGeometry x="313" y="60" width="60" height="30" as="geometry" />
        </mxCell>
        <mxCell id="pBLvvGg1-i04REJQwC87-13" value="User" style="shape=umlActor;verticalLabelPosition=bottom;verticalAlign=top;html=1;fontFamily=Computer Modern;" vertex="1" parent="1">
          <mxGeometry x="184" y="185" width="30" height="60" as="geometry" />
        </mxCell>
        <mxCell id="pBLvvGg1-i04REJQwC87-16" value="Parsed &amp;amp; demangled &lt;br&gt;source code for visualization" style="shape=note;size=20;whiteSpace=wrap;html=1;shadow=1;fontFamily=Computer Modern;" vertex="1" parent="1">
          <mxGeometry x="345" y="290" width="160" height="50" as="geometry" />
        </mxCell>
        <mxCell id="pBLvvGg1-i04REJQwC87-19" value="" style="endArrow=classic;html=1;rounded=0;entryX=0;entryY=0;entryDx=0;entryDy=15;entryPerimeter=0;" edge="1" parent="1" target="pBLvvGg1-i04REJQwC87-7">
          <mxGeometry width="50" height="50" relative="1" as="geometry">
            <mxPoint x="220" y="215" as="sourcePoint" />
            <mxPoint x="280" y="200" as="targetPoint" />
          </mxGeometry>
        </mxCell>
        <mxCell id="pBLvvGg1-i04REJQwC87-21" value="" style="endArrow=none;dashed=1;html=1;rounded=0;entryX=0;entryY=0;entryDx=70;entryDy=0;entryPerimeter=0;" edge="1" parent="1" target="pBLvvGg1-i04REJQwC87-16">
          <mxGeometry width="50" height="50" relative="1" as="geometry">
            <mxPoint x="420" y="240" as="sourcePoint" />
            <mxPoint x="300" y="300" as="targetPoint" />
          </mxGeometry>
        </mxCell>
        <mxCell id="pBLvvGg1-i04REJQwC87-26" value="" style="shape=note;whiteSpace=wrap;html=1;backgroundOutline=1;darkOpacity=0.05;size=10;" vertex="1" parent="1">
          <mxGeometry x="230" y="260" width="20" height="30" as="geometry" />
        </mxCell>
        <mxCell id="pBLvvGg1-i04REJQwC87-27" value="kernel.elf" style="text;html=1;strokeColor=none;fillColor=none;align=center;verticalAlign=middle;whiteSpace=wrap;rounded=0;fontFamily=Computer Modern;" vertex="1" parent="1">
          <mxGeometry x="210" y="290" width="60" height="30" as="geometry" />
        </mxCell>
        <mxCell id="pBLvvGg1-i04REJQwC87-28" value="" style="endArrow=none;dashed=1;html=1;rounded=0;exitX=0;exitY=0;exitDx=10;exitDy=0;exitPerimeter=0;" edge="1" parent="1">
          <mxGeometry width="50" height="50" relative="1" as="geometry">
            <mxPoint x="240" y="257" as="sourcePoint" />
            <mxPoint x="240" y="217" as="targetPoint" />
          </mxGeometry>
        </mxCell>
      </root>
    </mxGraphModel>
  </diagram>
</mxfile>
